<svg xmlns="http://www.w3.org/2000/svg" viewBox="0 0 216.64 66.64" width="145px" xml:space="preserve">
<style>.cls-1{fill:#ffffff;}</style>
<defs>
</defs>
<rect x="0" y="0" width="100%" height="100%" fill="rgba(102,51,102,0)"/>
<g transform="matrix(4.3583 0 0 4.7286 180.4766 483.3776)" id="Layer_1-2">
<path style="stroke: none; stroke-width: 1; stroke-dasharray: none; stroke-linecap: butt; stroke-dashoffset: 0; stroke-linejoin: miter; stroke-miterlimit: 4; is-custom-font: none; font-file-url: none; fill: rgb(255,255,255); fill-rule: nonzero; opacity: 1;" transform=" translate(-35.0073, -33.3296)" d="M 68.71 20 a 2.62 2.62 0 0 0 -4.6 -0.89 A 43 43 0 0 1 52.4 29.73 L 55.45 24 a 1 1 0 0 0 -1.82 -1 l -4.52 8.53 a 42 42 0 0 1 -10.48 3.59 L 55.5 8.24 l 4.56 2.64 l -4.19 7.91 a 1 1 0 1 0 1.82 1 l 4.19 -7.92 a 4.08 4.08 0 0 0 3.34 -7.41 L 58.51 0.55 a 4.09 4.09 0 0 0 -4.75 6.6 L 35.92 35.6 c -0.69 0.09 -1.39 0.17 -2.09 0.23 c -1 -4.83 -3.63 -10.48 -6.11 -13 a 11 11 0 0 0 -3.31 -2.27 a 1 1 0 1 0 -0.83 1.87 a 9.16 9.16 0 0 1 2.69 1.85 c 2.11 2.12 4.53 7.32 5.49 11.64 a 43.3 43.3 0 0 1 -4.53 -0.06 l -1 -1 h 1.38 a 1 1 0 0 0 0 -2 H 24.19 l -3.48 -3.47 h 3.74 a 1 1 0 1 0 0 -2.05 H 18.66 L 14.83 23.5 a 8.32 8.32 0 0 1 4.37 -1.74 a 1 1 0 0 0 0.93 -1.12 A 1 1 0 0 0 19 19.72 A 10.56 10.56 0 0 0 13.37 22 L 8.21 16.88 a 1 1 0 1 0 -1.45 1.45 l 5.16 5.16 A 10.56 10.56 0 0 0 9.58 30.8 A 42.81 42.81 0 0 1 4.2 27.33 A 2.61 2.61 0 0 0 0 29.43 A 35 35 0 0 0 20.24 61.17 a 3.24 3.24 0 0 0 2.36 5.47 H 47.39 a 3.25 3.25 0 0 0 3.25 -3.24 a 3.18 3.18 0 0 0 -0.88 -2.21 A 35 35 0 0 0 68.71 20 Z m -14 -17 a 2 2 0 0 1 2.78 -0.75 L 64.2 6.2 a 2 2 0 1 1 -2 3.52 L 55.45 5.85 A 2 2 0 0 1 54.7 3.07 Z M 17.06 34 V 28.63 l 3 3 v 3.2 C 19.05 34.59 18.05 34.31 17.06 34 Z m 5.05 -0.32 L 24 35.57 c -0.64 -0.08 -1.27 -0.19 -1.9 -0.3 Z M 13.38 25 L 15 26.58 v 6.71 c -1.09 -0.41 -2.16 -0.86 -3.22 -1.36 A 8.45 8.45 0 0 1 13.38 25 Z M 47 60.15 H 29.67 a 1 1 0 1 0 0 2.05 H 47.39 a 1.2 1.2 0 1 1 0 2.39 H 22.6 a 1.2 1.2 0 1 1 0 -2.39 h 2.28 a 1 1 0 1 0 0 -2.05 H 23.09 a 33.13 33.13 0 0 1 -21 -30.75 A 0.57 0.57 0 0 1 3 29 a 44.91 44.91 0 0 0 62.77 -8.57 a 0.57 0.57 0 0 1 1 0.19 A 32.86 32.86 0 0 1 47 60.15 Z" stroke-linecap="round"/>
</g>
<g transform="matrix(1 0 0 1 516.6653 527.1233)" style="" id="804105">
		
<path xml:space="preserve" font-family="Lato" font-size="121" font-style="normal" font-weight="bold" style="stroke: none; stroke-width: 1; stroke-dasharray: none; stroke-linecap: butt; stroke-dashoffset: 0; stroke-linejoin: miter; stroke-miterlimit: 4; is-custom-font: none; font-file-url: none; fill: rgb(255,255,255); fill-rule: nonzero; opacity: 1; white-space: pre;" d="M-96.59-117.84L-96.59-30.35L-112.98-30.35L-112.98-68.59L-154.00-68.59L-154.00-30.35L-170.40-30.35L-170.40-117.84L-154.00-117.84L-154.00-80.21L-112.98-80.21L-112.98-117.84L-96.59-117.84Z"/><path xml:space="preserve" font-family="Lato" font-size="121" font-style="normal" font-weight="bold" style="stroke: none; stroke-width: 1; stroke-dasharray: none; stroke-linecap: butt; stroke-dashoffset: 0; stroke-linejoin: miter; stroke-miterlimit: 4; is-custom-font: none; font-file-url: none; fill: rgb(255,255,255); fill-rule: nonzero; opacity: 1; white-space: pre;" d="M-27.01-69.56L-27.01-30.35L-33.73-30.35Q-35.85-30.35-37.06-30.99Q-38.27-31.62-38.87-33.56L-38.87-33.56L-40.20-37.98Q-42.56-35.86-44.83-34.26Q-47.10-32.65-49.52-31.56Q-51.94-30.48-54.66-29.93Q-57.38-29.39-60.71-29.39L-60.71-29.39Q-64.64-29.39-67.97-30.44Q-71.30-31.50-73.69-33.62Q-76.08-35.74-77.41-38.88Q-78.74-42.03-78.74-46.21L-78.74-46.21Q-78.74-49.71-76.90-53.13Q-75.05-56.55-70.75-59.30Q-66.46-62.06-59.32-63.87Q-52.18-65.69-41.59-65.93L-41.59-65.93L-41.59-69.56Q-41.59-75.79-44.23-78.78Q-46.86-81.78-51.88-81.78L-51.88-81.78Q-55.51-81.78-57.93-80.93Q-60.35-80.09-62.13-79.03Q-63.92-77.97-65.43-77.12Q-66.94-76.27-68.76-76.27L-68.76-76.27Q-70.27-76.27-71.36-77.06Q-72.45-77.85-73.11-79.00L-73.11-79.00L-75.84-83.78Q-65.13-93.58-50.00-93.58L-50.00-93.58Q-44.56-93.58-40.29-91.79Q-36.03-90.01-33.06-86.83Q-30.10-83.65-28.56-79.24Q-27.01-74.82-27.01-69.56L-27.01-69.56ZM-56.05-39.67L-56.05-39.67Q-53.75-39.67-51.82-40.09Q-49.88-40.52-48.16-41.37Q-46.43-42.21-44.83-43.45Q-43.23-44.69-41.59-46.39L-41.59-46.39L-41.59-56.85Q-48.13-56.55-52.51-55.73Q-56.90-54.92-59.56-53.65Q-62.22-52.38-63.34-50.68Q-64.46-48.99-64.46-46.99L-64.46-46.99Q-64.46-43.06-62.13-41.37Q-59.80-39.67-56.05-39.67Z"/><path xml:space="preserve" font-family="Lato" font-size="121" font-style="normal" font-weight="bold" style="stroke: none; stroke-width: 1; stroke-dasharray: none; stroke-linecap: butt; stroke-dashoffset: 0; stroke-linejoin: miter; stroke-miterlimit: 4; is-custom-font: none; font-file-url: none; fill: rgb(255,255,255); fill-rule: nonzero; opacity: 1; white-space: pre;" d="M6.75-30.35L-8.20-30.35L-8.20-92.43L0.57-92.43Q2.87-92.43 3.78-91.58Q4.69-90.73 4.99-88.68L4.99-88.68L5.90-81.17Q9.23-86.92 13.70-90.25Q18.18-93.58 23.75-93.58L23.75-93.58Q28.34-93.58 31.37-91.46L31.37-91.46L29.43-80.27Q29.25-79.18 28.65-78.72Q28.04-78.27 27.01-78.27L27.01-78.27Q26.11-78.27 24.53-78.69Q22.96-79.12 20.36-79.12L20.36-79.12Q15.70-79.12 12.37-76.55Q9.04-73.97 6.75-69.01L6.75-69.01L6.75-30.35Z"/><path xml:space="preserve" font-family="Lato" font-size="121" font-style="normal" font-weight="bold" style="stroke: none; stroke-width: 1; stroke-dasharray: none; stroke-linecap: butt; stroke-dashoffset: 0; stroke-linejoin: miter; stroke-miterlimit: 4; is-custom-font: none; font-file-url: none; fill: rgb(255,255,255); fill-rule: nonzero; opacity: 1; white-space: pre;" d="M55.39-30.35L45.53-30.35L45.53-120.26L60.47-120.26L60.47-84.80Q64.16-88.74 68.82-91.07Q73.48-93.40 79.71-93.40L79.71-93.40Q84.79-93.40 89.00-91.31Q93.20-89.22 96.26-85.23Q99.31-81.23 100.97-75.37Q102.64-69.50 102.64-61.87L102.64-61.87Q102.64-54.92 100.76-48.99Q98.89-43.06 95.41-38.70Q91.93-34.35 87.00-31.90Q82.07-29.45 75.96-29.45L75.96-29.45Q73.11-29.45 70.75-30.02Q68.40-30.60 66.46-31.62Q64.52-32.65 62.86-34.14Q61.20-35.62 59.68-37.43L59.68-37.43L59.02-33.26Q58.65-31.69 57.78-31.02Q56.90-30.35 55.39-30.35L55.39-30.35ZM74.57-81.78L74.57-81.78Q69.91-81.78 66.61-79.81Q63.31-77.85 60.47-74.28L60.47-74.28L60.47-46.45Q63.01-43.30 66.01-42.06Q69.00-40.82 72.51-40.82L72.51-40.82Q75.90-40.82 78.62-42.09Q81.34-43.36 83.25-45.96Q85.15-48.56 86.18-52.53Q87.21-56.49 87.21-61.87L87.21-61.87Q87.21-67.32 86.33-71.10Q85.46-74.88 83.82-77.24Q82.19-79.60 79.86-80.69Q77.53-81.78 74.57-81.78Z"/><path xml:space="preserve" font-family="Lato" font-size="121" font-style="normal" font-weight="bold" style="stroke: none; stroke-width: 1; stroke-dasharray: none; stroke-linecap: butt; stroke-dashoffset: 0; stroke-linejoin: miter; stroke-miterlimit: 4; is-custom-font: none; font-file-url: none; fill: rgb(255,255,255); fill-rule: nonzero; opacity: 1; white-space: pre;" d="M144.93-93.40L144.93-93.40Q151.89-93.40 157.54-91.16Q163.20-88.92 167.19-84.80Q171.18-80.69 173.36-74.76Q175.54-68.83 175.54-61.51L175.54-61.51Q175.54-54.13 173.36-48.20Q171.18-42.27 167.19-38.10Q163.20-33.92 157.54-31.69Q151.89-29.45 144.93-29.45L144.93-29.45Q137.97-29.45 132.28-31.69Q126.60-33.92 122.57-38.10Q118.55-42.27 116.34-48.20Q114.13-54.13 114.13-61.51L114.13-61.51Q114.13-68.83 116.34-74.76Q118.55-80.69 122.57-84.80Q126.60-88.92 132.28-91.16Q137.97-93.40 144.93-93.40ZM144.93-40.94L144.93-40.94Q152.67-40.94 156.39-46.14Q160.11-51.35 160.11-61.39L160.11-61.39Q160.11-71.43 156.39-76.70Q152.67-81.96 144.93-81.96L144.93-81.96Q137.06-81.96 133.31-76.67Q129.56-71.37 129.56-61.39L129.56-61.39Q129.56-51.41 133.31-46.17Q137.06-40.94 144.93-40.94Z"/><path xml:space="preserve" font-family="Lato" font-size="121" font-style="normal" font-weight="bold" style="stroke: none; stroke-width: 1; stroke-dasharray: none; stroke-linecap: butt; stroke-dashoffset: 0; stroke-linejoin: miter; stroke-miterlimit: 4; is-custom-font: none; font-file-url: none; fill: rgb(255,255,255); fill-rule: nonzero; opacity: 1; white-space: pre;" d=""/><path xml:space="preserve" font-family="Lato" font-size="121" font-style="normal" font-weight="bold" style="stroke: none; stroke-width: 1; stroke-dasharray: none; stroke-linecap: butt; stroke-dashoffset: 0; stroke-linejoin: miter; stroke-miterlimit: 4; is-custom-font: none; font-file-url: none; fill: rgb(255,255,255); fill-rule: nonzero; opacity: 1; white-space: pre;" d=""/><path xml:space="preserve" font-family="Lato" font-size="121" font-style="normal" font-weight="bold" style="stroke: none; stroke-width: 1; stroke-dasharray: none; stroke-linecap: butt; stroke-dashoffset: 0; stroke-linejoin: miter; stroke-miterlimit: 4; is-custom-font: none; font-file-url: none; fill: rgb(255,255,255); fill-rule: nonzero; opacity: 1; white-space: pre;" d=""/><path xml:space="preserve" font-family="Lato" font-size="121" font-style="normal" font-weight="bold" style="stroke: none; stroke-width: 1; stroke-dasharray: none; stroke-linecap: butt; stroke-dashoffset: 0; stroke-linejoin: miter; stroke-miterlimit: 4; is-custom-font: none; font-file-url: none; fill: rgb(255,255,255); fill-rule: nonzero; opacity: 1; white-space: pre;" d=""/><path xml:space="preserve" font-family="Lato" font-size="121" font-style="normal" font-weight="bold" style="stroke: none; stroke-width: 1; stroke-dasharray: none; stroke-linecap: butt; stroke-dashoffset: 0; stroke-linejoin: miter; stroke-miterlimit: 4; is-custom-font: none; font-file-url: none; fill: rgb(255,255,255); fill-rule: nonzero; opacity: 1; white-space: pre;" d=""/><path xml:space="preserve" font-family="Lato" font-size="121" font-style="normal" font-weight="bold" style="stroke: none; stroke-width: 1; stroke-dasharray: none; stroke-linecap: butt; stroke-dashoffset: 0; stroke-linejoin: miter; stroke-miterlimit: 4; is-custom-font: none; font-file-url: none; fill: rgb(255,255,255); fill-rule: nonzero; opacity: 1; white-space: pre;" d=""/><path xml:space="preserve" font-family="Lato" font-size="121" font-style="normal" font-weight="bold" style="stroke: none; stroke-width: 1; stroke-dasharray: none; stroke-linecap: butt; stroke-dashoffset: 0; stroke-linejoin: miter; stroke-miterlimit: 4; is-custom-font: none; font-file-url: none; fill: rgb(255,255,255); fill-rule: nonzero; opacity: 1; white-space: pre;" d=""/><path xml:space="preserve" font-family="Lato" font-size="121" font-style="normal" font-weight="bold" style="stroke: none; stroke-width: 1; stroke-dasharray: none; stroke-linecap: butt; stroke-dashoffset: 0; stroke-linejoin: miter; stroke-miterlimit: 4; is-custom-font: none; font-file-url: none; fill: rgb(255,255,255); fill-rule: nonzero; opacity: 1; white-space: pre;" d=""/><path xml:space="preserve" font-family="Lato" font-size="121" font-style="normal" font-weight="bold" style="stroke: none; stroke-width: 1; stroke-dasharray: none; stroke-linecap: butt; stroke-dashoffset: 0; stroke-linejoin: miter; stroke-miterlimit: 4; is-custom-font: none; font-file-url: none; fill: rgb(255,255,255); fill-rule: nonzero; opacity: 1; white-space: pre;" d=""/><path xml:space="preserve" font-family="Lato" font-size="121" font-style="normal" font-weight="bold" style="stroke: none; stroke-width: 1; stroke-dasharray: none; stroke-linecap: butt; stroke-dashoffset: 0; stroke-linejoin: miter; stroke-miterlimit: 4; is-custom-font: none; font-file-url: none; fill: rgb(255,255,255); fill-rule: nonzero; opacity: 1; white-space: pre;" d=""/><path xml:space="preserve" font-family="Lato" font-size="121" font-style="normal" font-weight="bold" style="stroke: none; stroke-width: 1; stroke-dasharray: none; stroke-linecap: butt; stroke-dashoffset: 0; stroke-linejoin: miter; stroke-miterlimit: 4; is-custom-font: none; font-file-url: none; fill: rgb(255,255,255); fill-rule: nonzero; opacity: 1; white-space: pre;" d=""/><path xml:space="preserve" font-family="Lato" font-size="121" font-style="normal" font-weight="bold" style="stroke: none; stroke-width: 1; stroke-dasharray: none; stroke-linecap: butt; stroke-dashoffset: 0; stroke-linejoin: miter; stroke-miterlimit: 4; is-custom-font: none; font-file-url: none; fill: rgb(255,255,255); fill-rule: nonzero; opacity: 1; white-space: pre;" d=""/><path xml:space="preserve" font-family="Lato" font-size="121" font-style="normal" font-weight="bold" style="stroke: none; stroke-width: 1; stroke-dasharray: none; stroke-linecap: butt; stroke-dashoffset: 0; stroke-linejoin: miter; stroke-miterlimit: 4; is-custom-font: none; font-file-url: none; fill: rgb(255,255,255); fill-rule: nonzero; opacity: 1; white-space: pre;" d=""/><path xml:space="preserve" font-family="Lato" font-size="121" font-style="normal" font-weight="bold" style="stroke: none; stroke-width: 1; stroke-dasharray: none; stroke-linecap: butt; stroke-dashoffset: 0; stroke-linejoin: miter; stroke-miterlimit: 4; is-custom-font: none; font-file-url: none; fill: rgb(255,255,255); fill-rule: nonzero; opacity: 1; white-space: pre;" d="M32.28 106.38L-3.06 18.89L10.07 18.89Q12.19 18.89 13.52 19.92Q14.85 20.95 15.52 22.58L15.52 22.58L36.09 75.94Q37.12 78.55 38.05 81.66Q38.99 84.78 39.84 88.23L39.84 88.23Q41.23 81.27 43.29 75.94L43.29 75.94L63.80 22.58Q64.34 21.19 65.73 20.04Q67.12 18.89 69.18 18.89L69.18 18.89L82.31 18.89L46.98 106.38L32.28 106.38Z"/><path xml:space="preserve" font-family="Lato" font-size="121" font-style="normal" font-weight="bold" style="stroke: none; stroke-width: 1; stroke-dasharray: none; stroke-linecap: butt; stroke-dashoffset: 0; stroke-linejoin: miter; stroke-miterlimit: 4; is-custom-font: none; font-file-url: none; fill: rgb(255,255,255); fill-rule: nonzero; opacity: 1; white-space: pre;" d="M135.91 67.17L135.91 106.38L129.20 106.38Q127.08 106.38 125.87 105.74Q124.66 105.11 124.06 103.17L124.06 103.17L122.72 98.75Q120.36 100.87 118.10 102.47Q115.83 104.08 113.41 105.17Q110.99 106.25 108.26 106.80Q105.54 107.34 102.21 107.34L102.21 107.34Q98.28 107.34 94.95 106.29Q91.63 105.23 89.24 103.11Q86.85 100.99 85.52 97.85Q84.19 94.70 84.19 90.52L84.19 90.52Q84.19 87.02 86.03 83.60Q87.88 80.18 92.17 77.43Q96.47 74.67 103.61 72.86Q110.75 71.04 121.33 70.80L121.33 70.80L121.33 67.17Q121.33 60.94 118.70 57.95Q116.07 54.95 111.05 54.95L111.05 54.95Q107.42 54.95 105.00 55.80Q102.58 56.64 100.79 57.70Q99.01 58.76 97.50 59.61Q95.98 60.46 94.17 60.46L94.17 60.46Q92.66 60.46 91.57 59.67Q90.48 58.88 89.81 57.73L89.81 57.73L87.09 52.95Q97.80 43.15 112.92 43.15L112.92 43.15Q118.37 43.15 122.63 44.94Q126.90 46.72 129.86 49.90Q132.83 53.08 134.37 57.49Q135.91 61.91 135.91 67.17L135.91 67.17ZM106.87 97.06L106.87 97.06Q109.17 97.06 111.11 96.64Q113.04 96.21 114.77 95.36Q116.49 94.52 118.10 93.28Q119.70 92.04 121.33 90.34L121.33 90.34L121.33 79.88Q114.80 80.18 110.41 81.00Q106.03 81.81 103.36 83.08Q100.70 84.35 99.58 86.05Q98.46 87.74 98.46 89.74L98.46 89.74Q98.46 93.67 100.79 95.36Q103.12 97.06 106.87 97.06Z"/><path xml:space="preserve" font-family="Lato" font-size="121" font-style="normal" font-weight="bold" style="stroke: none; stroke-width: 1; stroke-dasharray: none; stroke-linecap: butt; stroke-dashoffset: 0; stroke-linejoin: miter; stroke-miterlimit: 4; is-custom-font: none; font-file-url: none; fill: rgb(255,255,255); fill-rule: nonzero; opacity: 1; white-space: pre;" d="M155.70 44.30L170.64 44.30L170.64 106.38L155.70 106.38L155.70 44.30ZM172.88 26.21L172.88 26.21Q172.88 28.15 172.09 29.84Q171.31 31.54 170.00 32.81Q168.70 34.08 166.95 34.83Q165.20 35.59 163.20 35.59L163.20 35.59Q161.26 35.59 159.54 34.83Q157.81 34.08 156.54 32.81Q155.27 31.54 154.52 29.84Q153.76 28.15 153.76 26.21L153.76 26.21Q153.76 24.22 154.52 22.46Q155.27 20.71 156.54 19.44Q157.81 18.17 159.54 17.41Q161.26 16.65 163.20 16.65L163.20 16.65Q165.20 16.65 166.95 17.41Q168.70 18.17 170.00 19.44Q171.31 20.71 172.09 22.46Q172.88 24.22 172.88 26.21Z"/><path xml:space="preserve" font-family="Lato" font-size="121" font-style="normal" font-weight="bold" style="stroke: none; stroke-width: 1; stroke-dasharray: none; stroke-linecap: butt; stroke-dashoffset: 0; stroke-linejoin: miter; stroke-miterlimit: 4; is-custom-font: none; font-file-url: none; fill: rgb(255,255,255); fill-rule: nonzero; opacity: 1; white-space: pre;" d="M244.45 106.38L235.31 106.38Q232.41 106.38 231.50 103.65L231.50 103.65L230.29 97.66Q228.36 99.84 226.24 101.60Q224.12 103.35 221.67 104.62Q219.22 105.89 216.41 106.59Q213.60 107.28 210.33 107.28L210.33 107.28Q205.25 107.28 201.01 105.17Q196.78 103.05 193.72 99.03Q190.67 95.00 189.00 89.07Q187.34 83.14 187.34 75.52L187.34 75.52Q187.34 68.62 189.21 62.69Q191.09 56.77 194.60 52.41Q198.11 48.05 203.01 45.60Q207.91 43.15 214.02 43.15L214.02 43.15Q219.22 43.15 222.91 44.82Q226.60 46.48 229.51 49.26L229.51 49.26L229.51 16.47L244.45 16.47L244.45 106.38ZM215.41 95.43L215.41 95.43Q220.07 95.43 223.34 93.49Q226.60 91.55 229.51 87.98L229.51 87.98L229.51 60.15Q226.97 57.07 223.97 55.80Q220.98 54.53 217.53 54.53L217.53 54.53Q214.14 54.53 211.39 55.80Q208.63 57.07 206.73 59.64Q204.82 62.21 203.79 66.17Q202.77 70.14 202.77 75.52L202.77 75.52Q202.77 80.97 203.64 84.75Q204.52 88.53 206.15 90.92Q207.79 93.31 210.15 94.37Q212.51 95.43 215.41 95.43Z"/><path xml:space="preserve" font-family="Lato" font-size="121" font-style="normal" font-weight="bold" style="stroke: none; stroke-width: 1; stroke-dasharray: none; stroke-linecap: butt; stroke-dashoffset: 0; stroke-linejoin: miter; stroke-miterlimit: 4; is-custom-font: none; font-file-url: none; fill: rgb(255,255,255); fill-rule: nonzero; opacity: 1; white-space: pre;" d="M265.69 44.30L280.63 44.30L280.63 106.38L265.69 106.38L265.69 44.30ZM282.87 26.21L282.87 26.21Q282.87 28.15 282.08 29.84Q281.29 31.54 279.99 32.81Q278.69 34.08 276.94 34.83Q275.18 35.59 273.19 35.59L273.19 35.59Q271.25 35.59 269.53 34.83Q267.80 34.08 266.53 32.81Q265.26 31.54 264.51 29.84Q263.75 28.15 263.75 26.21L263.75 26.21Q263.75 24.22 264.51 22.46Q265.26 20.71 266.53 19.44Q267.80 18.17 269.53 17.41Q271.25 16.65 273.19 16.65L273.19 16.65Q275.18 16.65 276.94 17.41Q278.69 18.17 279.99 19.44Q281.29 20.71 282.08 22.46Q282.87 24.22 282.87 26.21Z"/><path xml:space="preserve" font-family="Lato" font-size="121" font-style="normal" font-weight="bold" style="stroke: none; stroke-width: 1; stroke-dasharray: none; stroke-linecap: butt; stroke-dashoffset: 0; stroke-linejoin: miter; stroke-miterlimit: 4; is-custom-font: none; font-file-url: none; fill: rgb(255,255,255); fill-rule: nonzero; opacity: 1; white-space: pre;" d="M301.80 16.47L316.75 16.47L316.75 67.96L319.53 67.96Q321.04 67.96 321.89 67.53Q322.74 67.11 323.71 65.96L323.71 65.96L339.13 46.90Q340.16 45.69 341.31 45.00Q342.46 44.30 344.34 44.30L344.34 44.30L358.01 44.30L338.71 67.35Q337.68 68.62 336.59 69.68Q335.50 70.74 334.23 71.53L334.23 71.53Q335.50 72.44 336.47 73.65Q337.44 74.86 338.41 76.25L338.41 76.25L359.10 106.38L345.61 106.38Q343.85 106.38 342.64 105.77Q341.43 105.17 340.46 103.71L340.46 103.71L324.67 80.18Q323.77 78.79 322.86 78.36Q321.95 77.94 320.14 77.94L320.14 77.94L316.75 77.94L316.75 106.38L301.80 106.38L301.80 16.47Z"/></g>
</svg>