<svg xmlns="http://www.w3.org/2000/svg" xmlns:xlink="http://www.w3.org/1999/xlink" version="1.1" width="145" height="50" viewBox="0 0 145 50" xml:space="preserve">
<desc>Created with Fabric.js 3.5.0</desc>
<defs>
</defs>
<rect x="0" y="0" width="100%" height="100%" fill="rgba(218,37,218,0)"/>
<g transform="matrix(0.6157 0 0 0.668 21.5086 24.2698)" id="320350">
<path style="stroke: none; stroke-width: 0; stroke-dasharray: none; stroke-linecap: butt; stroke-dashoffset: 0; stroke-linejoin: miter; stroke-miterlimit: 4; is-custom-font: none; font-file-url: none; fill: rgb(255,255,255); fill-rule: nonzero; opacity: 1;" transform=" translate(-35.0073, -33.3296)" d="M 68.71 20 a 2.62 2.62 0 0 0 -4.6 -0.89 A 43 43 0 0 1 52.4 29.73 L 55.45 24 a 1 1 0 0 0 -1.82 -1 l -4.52 8.53 a 42 42 0 0 1 -10.48 3.59 L 55.5 8.24 l 4.56 2.64 l -4.19 7.91 a 1 1 0 1 0 1.82 1 l 4.19 -7.92 a 4.08 4.08 0 0 0 3.34 -7.41 L 58.51 0.55 a 4.09 4.09 0 0 0 -4.75 6.6 L 35.92 35.6 c -0.69 0.09 -1.39 0.17 -2.09 0.23 c -1 -4.83 -3.63 -10.48 -6.11 -13 a 11 11 0 0 0 -3.31 -2.27 a 1 1 0 1 0 -0.83 1.87 a 9.16 9.16 0 0 1 2.69 1.85 c 2.11 2.12 4.53 7.32 5.49 11.64 a 43.3 43.3 0 0 1 -4.53 -0.06 l -1 -1 h 1.38 a 1 1 0 0 0 0 -2 H 24.19 l -3.48 -3.47 h 3.74 a 1 1 0 1 0 0 -2.05 H 18.66 L 14.83 23.5 a 8.32 8.32 0 0 1 4.37 -1.74 a 1 1 0 0 0 0.93 -1.12 A 1 1 0 0 0 19 19.72 A 10.56 10.56 0 0 0 13.37 22 L 8.21 16.88 a 1 1 0 1 0 -1.45 1.45 l 5.16 5.16 A 10.56 10.56 0 0 0 9.58 30.8 A 42.81 42.81 0 0 1 4.2 27.33 A 2.61 2.61 0 0 0 0 29.43 A 35 35 0 0 0 20.24 61.17 a 3.24 3.24 0 0 0 2.36 5.47 H 47.39 a 3.25 3.25 0 0 0 3.25 -3.24 a 3.18 3.18 0 0 0 -0.88 -2.21 A 35 35 0 0 0 68.71 20 Z m -14 -17 a 2 2 0 0 1 2.78 -0.75 L 64.2 6.2 a 2 2 0 1 1 -2 3.52 L 55.45 5.85 A 2 2 0 0 1 54.7 3.07 Z M 17.06 34 V 28.63 l 3 3 v 3.2 C 19.05 34.59 18.05 34.31 17.06 34 Z m 5.05 -0.32 L 24 35.57 c -0.64 -0.08 -1.27 -0.19 -1.9 -0.3 Z M 13.38 25 L 15 26.58 v 6.71 c -1.09 -0.41 -2.16 -0.86 -3.22 -1.36 A 8.45 8.45 0 0 1 13.38 25 Z M 47 60.15 H 29.67 a 1 1 0 1 0 0 2.05 H 47.39 a 1.2 1.2 0 1 1 0 2.39 H 22.6 a 1.2 1.2 0 1 1 0 -2.39 h 2.28 a 1 1 0 1 0 0 -2.05 H 23.09 a 33.13 33.13 0 0 1 -21 -30.75 A 0.57 0.57 0 0 1 3 29 a 44.91 44.91 0 0 0 62.77 -8.57 a 0.57 0.57 0 0 1 1 0.19 A 32.86 32.86 0 0 1 47 60.15 Z" stroke-linecap="round"/>
</g>
<g transform="matrix(0.0001 0 0 0.0001 6.1724 18.8654)" style="" id="833209">
		
<path xml:space="preserve" font-family="Lato" font-size="121" font-style="normal" font-weight="bold" style="stroke: none; stroke-width: 0; stroke-dasharray: none; stroke-linecap: butt; stroke-dashoffset: 0; stroke-linejoin: miter; stroke-miterlimit: 4; is-custom-font: none; font-file-url: none; fill: rgb(216,24,24); fill-rule: nonzero; opacity: 1; white-space: pre;" d="M-96.59-186.20L-96.59-98.72L-112.98-98.72L-112.98-136.96L-154.00-136.96L-154.00-98.72L-170.40-98.72L-170.40-186.20L-154.00-186.20L-154.00-148.57L-112.98-148.57L-112.98-186.20L-96.59-186.20Z"/><path xml:space="preserve" font-family="Lato" font-size="121" font-style="normal" font-weight="bold" style="stroke: none; stroke-width: 0; stroke-dasharray: none; stroke-linecap: butt; stroke-dashoffset: 0; stroke-linejoin: miter; stroke-miterlimit: 4; is-custom-font: none; font-file-url: none; fill: rgb(216,24,24); fill-rule: nonzero; opacity: 1; white-space: pre;" d="M-27.01-137.92L-27.01-98.72L-33.73-98.72Q-35.85-98.72-37.06-99.35Q-38.27-99.99-38.87-101.93L-38.87-101.93L-40.20-106.34Q-42.56-104.22-44.83-102.62Q-47.10-101.02-49.52-99.93Q-51.94-98.84-54.66-98.30Q-57.38-97.75-60.71-97.75L-60.71-97.75Q-64.64-97.75-67.97-98.81Q-71.30-99.87-73.69-101.99Q-76.08-104.10-77.41-107.25Q-78.74-110.40-78.74-114.57L-78.74-114.57Q-78.74-118.08-76.90-121.50Q-75.05-124.92-70.75-127.67Q-66.46-130.42-59.32-132.24Q-52.18-134.05-41.59-134.29L-41.59-134.29L-41.59-137.92Q-41.59-144.15-44.23-147.15Q-46.86-150.14-51.88-150.14L-51.88-150.14Q-55.51-150.14-57.93-149.30Q-60.35-148.45-62.13-147.39Q-63.92-146.33-65.43-145.49Q-66.94-144.64-68.76-144.64L-68.76-144.64Q-70.27-144.64-71.36-145.43Q-72.45-146.21-73.11-147.36L-73.11-147.36L-75.84-152.14Q-65.13-161.94-50.00-161.94L-50.00-161.94Q-44.56-161.94-40.29-160.16Q-36.03-158.37-33.06-155.20Q-30.10-152.02-28.56-147.60Q-27.01-143.19-27.01-137.92L-27.01-137.92ZM-56.05-108.04L-56.05-108.04Q-53.75-108.04-51.82-108.46Q-49.88-108.88-48.16-109.73Q-46.43-110.58-44.83-111.82Q-43.23-113.06-41.59-114.75L-41.59-114.75L-41.59-125.22Q-48.13-124.92-52.51-124.10Q-56.90-123.28-59.56-122.01Q-62.22-120.74-63.34-119.05Q-64.46-117.35-64.46-115.36L-64.46-115.36Q-64.46-111.42-62.13-109.73Q-59.80-108.04-56.05-108.04Z"/><path xml:space="preserve" font-family="Lato" font-size="121" font-style="normal" font-weight="bold" style="stroke: none; stroke-width: 0; stroke-dasharray: none; stroke-linecap: butt; stroke-dashoffset: 0; stroke-linejoin: miter; stroke-miterlimit: 4; is-custom-font: none; font-file-url: none; fill: rgb(216,24,24); fill-rule: nonzero; opacity: 1; white-space: pre;" d="M6.75-98.72L-8.20-98.72L-8.20-160.79L0.57-160.79Q2.87-160.79 3.78-159.95Q4.69-159.10 4.99-157.04L4.99-157.04L5.90-149.54Q9.23-155.29 13.70-158.61Q18.18-161.94 23.75-161.94L23.75-161.94Q28.34-161.94 31.37-159.82L31.37-159.82L29.43-148.63Q29.25-147.54 28.65-147.09Q28.04-146.64 27.01-146.64L27.01-146.64Q26.11-146.64 24.53-147.06Q22.96-147.48 20.36-147.48L20.36-147.48Q15.70-147.48 12.37-144.91Q9.04-142.34 6.75-137.38L6.75-137.38L6.75-98.72Z"/><path xml:space="preserve" font-family="Lato" font-size="121" font-style="normal" font-weight="bold" style="stroke: none; stroke-width: 0; stroke-dasharray: none; stroke-linecap: butt; stroke-dashoffset: 0; stroke-linejoin: miter; stroke-miterlimit: 4; is-custom-font: none; font-file-url: none; fill: rgb(216,24,24); fill-rule: nonzero; opacity: 1; white-space: pre;" d="M55.39-98.72L45.53-98.72L45.53-188.62L60.47-188.62L60.47-153.17Q64.16-157.10 68.82-159.43Q73.48-161.76 79.71-161.76L79.71-161.76Q84.79-161.76 89.00-159.67Q93.20-157.59 96.26-153.59Q99.31-149.60 100.97-143.73Q102.64-137.86 102.64-130.24L102.64-130.24Q102.64-123.28 100.76-117.35Q98.89-111.42 95.41-107.07Q91.93-102.71 87.00-100.26Q82.07-97.81 75.96-97.81L75.96-97.81Q73.11-97.81 70.75-98.39Q68.40-98.96 66.46-99.99Q64.52-101.02 62.86-102.50Q61.20-103.98 59.68-105.80L59.68-105.80L59.02-101.62Q58.65-100.05 57.78-99.38Q56.90-98.72 55.39-98.72L55.39-98.72ZM74.57-150.14L74.57-150.14Q69.91-150.14 66.61-148.18Q63.31-146.21 60.47-142.64L60.47-142.64L60.47-114.81Q63.01-111.67 66.01-110.43Q69.00-109.19 72.51-109.19L72.51-109.19Q75.90-109.19 78.62-110.46Q81.34-111.73 83.25-114.33Q85.15-116.93 86.18-120.89Q87.21-124.86 87.21-130.24L87.21-130.24Q87.21-135.68 86.33-139.47Q85.46-143.25 83.82-145.61Q82.19-147.97 79.86-149.06Q77.53-150.14 74.57-150.14Z"/><path xml:space="preserve" font-family="Lato" font-size="121" font-style="normal" font-weight="bold" style="stroke: none; stroke-width: 0; stroke-dasharray: none; stroke-linecap: butt; stroke-dashoffset: 0; stroke-linejoin: miter; stroke-miterlimit: 4; is-custom-font: none; font-file-url: none; fill: rgb(216,24,24); fill-rule: nonzero; opacity: 1; white-space: pre;" d="M144.93-161.76L144.93-161.76Q151.89-161.76 157.54-159.52Q163.20-157.28 167.19-153.17Q171.18-149.06 173.36-143.13Q175.54-137.20 175.54-129.88L175.54-129.88Q175.54-122.50 173.36-116.57Q171.18-110.64 167.19-106.46Q163.20-102.29 157.54-100.05Q151.89-97.81 144.93-97.81L144.93-97.81Q137.97-97.81 132.28-100.05Q126.60-102.29 122.57-106.46Q118.55-110.64 116.34-116.57Q114.13-122.50 114.13-129.88L114.13-129.88Q114.13-137.20 116.34-143.13Q118.55-149.06 122.57-153.17Q126.60-157.28 132.28-159.52Q137.97-161.76 144.93-161.76ZM144.93-109.31L144.93-109.31Q152.67-109.31 156.39-114.51Q160.11-119.71 160.11-129.76L160.11-129.76Q160.11-139.80 156.39-145.06Q152.67-150.33 144.93-150.33L144.93-150.33Q137.06-150.33 133.31-145.03Q129.56-139.74 129.56-129.76L129.56-129.76Q129.56-119.77 133.31-114.54Q137.06-109.31 144.93-109.31Z"/><path xml:space="preserve" font-family="Lato" font-size="121" font-style="normal" font-weight="bold" style="stroke: none; stroke-width: 0; stroke-dasharray: none; stroke-linecap: butt; stroke-dashoffset: 0; stroke-linejoin: miter; stroke-miterlimit: 4; is-custom-font: none; font-file-url: none; fill: rgb(216,24,24); fill-rule: nonzero; opacity: 1; white-space: pre;" d=""/><path xml:space="preserve" font-family="Lato" font-size="121" font-style="normal" font-weight="bold" style="stroke: none; stroke-width: 0; stroke-dasharray: none; stroke-linecap: butt; stroke-dashoffset: 0; stroke-linejoin: miter; stroke-miterlimit: 4; is-custom-font: none; font-file-url: none; fill: rgb(216,24,24); fill-rule: nonzero; opacity: 1; white-space: pre;" d=""/><path xml:space="preserve" font-family="Lato" font-size="121" font-style="normal" font-weight="bold" style="stroke: none; stroke-width: 0; stroke-dasharray: none; stroke-linecap: butt; stroke-dashoffset: 0; stroke-linejoin: miter; stroke-miterlimit: 4; is-custom-font: none; font-file-url: none; fill: rgb(216,24,24); fill-rule: nonzero; opacity: 1; white-space: pre;" d=""/><path xml:space="preserve" font-family="Lato" font-size="121" font-style="normal" font-weight="bold" style="stroke: none; stroke-width: 0; stroke-dasharray: none; stroke-linecap: butt; stroke-dashoffset: 0; stroke-linejoin: miter; stroke-miterlimit: 4; is-custom-font: none; font-file-url: none; fill: rgb(216,24,24); fill-rule: nonzero; opacity: 1; white-space: pre;" d=""/><path xml:space="preserve" font-family="Lato" font-size="121" font-style="normal" font-weight="bold" style="stroke: none; stroke-width: 0; stroke-dasharray: none; stroke-linecap: butt; stroke-dashoffset: 0; stroke-linejoin: miter; stroke-miterlimit: 4; is-custom-font: none; font-file-url: none; fill: rgb(216,24,24); fill-rule: nonzero; opacity: 1; white-space: pre;" d=""/><path xml:space="preserve" font-family="Lato" font-size="121" font-style="normal" font-weight="bold" style="stroke: none; stroke-width: 0; stroke-dasharray: none; stroke-linecap: butt; stroke-dashoffset: 0; stroke-linejoin: miter; stroke-miterlimit: 4; is-custom-font: none; font-file-url: none; fill: rgb(216,24,24); fill-rule: nonzero; opacity: 1; white-space: pre;" d=""/><path xml:space="preserve" font-family="Lato" font-size="121" font-style="normal" font-weight="bold" style="stroke: none; stroke-width: 0; stroke-dasharray: none; stroke-linecap: butt; stroke-dashoffset: 0; stroke-linejoin: miter; stroke-miterlimit: 4; is-custom-font: none; font-file-url: none; fill: rgb(216,24,24); fill-rule: nonzero; opacity: 1; white-space: pre;" d=""/><path xml:space="preserve" font-family="Lato" font-size="121" font-style="normal" font-weight="bold" style="stroke: none; stroke-width: 0; stroke-dasharray: none; stroke-linecap: butt; stroke-dashoffset: 0; stroke-linejoin: miter; stroke-miterlimit: 4; is-custom-font: none; font-file-url: none; fill: rgb(216,24,24); fill-rule: nonzero; opacity: 1; white-space: pre;" d=""/><path xml:space="preserve" font-family="Lato" font-size="121" font-style="normal" font-weight="bold" style="stroke: none; stroke-width: 0; stroke-dasharray: none; stroke-linecap: butt; stroke-dashoffset: 0; stroke-linejoin: miter; stroke-miterlimit: 4; is-custom-font: none; font-file-url: none; fill: rgb(216,24,24); fill-rule: nonzero; opacity: 1; white-space: pre;" d=""/><path xml:space="preserve" font-family="Lato" font-size="121" font-style="normal" font-weight="bold" style="stroke: none; stroke-width: 0; stroke-dasharray: none; stroke-linecap: butt; stroke-dashoffset: 0; stroke-linejoin: miter; stroke-miterlimit: 4; is-custom-font: none; font-file-url: none; fill: rgb(216,24,24); fill-rule: nonzero; opacity: 1; white-space: pre;" d=""/><path xml:space="preserve" font-family="Lato" font-size="121" font-style="normal" font-weight="bold" style="stroke: none; stroke-width: 0; stroke-dasharray: none; stroke-linecap: butt; stroke-dashoffset: 0; stroke-linejoin: miter; stroke-miterlimit: 4; is-custom-font: none; font-file-url: none; fill: rgb(216,24,24); fill-rule: nonzero; opacity: 1; white-space: pre;" d=""/><path xml:space="preserve" font-family="Lato" font-size="121" font-style="normal" font-weight="bold" style="stroke: none; stroke-width: 0; stroke-dasharray: none; stroke-linecap: butt; stroke-dashoffset: 0; stroke-linejoin: miter; stroke-miterlimit: 4; is-custom-font: none; font-file-url: none; fill: rgb(216,24,24); fill-rule: nonzero; opacity: 1; white-space: pre;" d=""/><path xml:space="preserve" font-family="Lato" font-size="121" font-style="normal" font-weight="bold" style="stroke: none; stroke-width: 0; stroke-dasharray: none; stroke-linecap: butt; stroke-dashoffset: 0; stroke-linejoin: miter; stroke-miterlimit: 4; is-custom-font: none; font-file-url: none; fill: rgb(216,24,24); fill-rule: nonzero; opacity: 1; white-space: pre;" d="M-146.26 174.74L-181.59 87.26L-168.46 87.26Q-166.34 87.26-165.01 88.29Q-163.68 89.31-163.02 90.95L-163.02 90.95L-142.45 144.31Q-141.42 146.91-140.48 150.03Q-139.54 153.14-138.70 156.59L-138.70 156.59Q-137.30 149.63-135.25 144.31L-135.25 144.31L-114.74 90.95Q-114.19 89.56-112.80 88.41Q-111.41 87.26-109.35 87.26L-109.35 87.26L-96.23 87.26L-131.56 174.74L-146.26 174.74Z"/><path xml:space="preserve" font-family="Lato" font-size="121" font-style="normal" font-weight="bold" style="stroke: none; stroke-width: 0; stroke-dasharray: none; stroke-linecap: butt; stroke-dashoffset: 0; stroke-linejoin: miter; stroke-miterlimit: 4; is-custom-font: none; font-file-url: none; fill: rgb(216,24,24); fill-rule: nonzero; opacity: 1; white-space: pre;" d="M-42.62 135.54L-42.62 174.74L-49.34 174.74Q-51.46 174.74-52.67 174.11Q-53.88 173.47-54.48 171.53L-54.48 171.53L-55.81 167.12Q-58.17 169.24-60.44 170.84Q-62.71 172.44-65.13 173.53Q-67.55 174.62-70.27 175.16Q-72.99 175.71-76.32 175.71L-76.32 175.71Q-80.25 175.71-83.58 174.65Q-86.91 173.59-89.30 171.47Q-91.69 169.36-93.02 166.21Q-94.35 163.06-94.35 158.89L-94.35 158.89Q-94.35 155.38-92.50 151.96Q-90.66 148.54-86.36 145.79Q-82.07 143.04-74.93 141.22Q-67.79 139.41-57.20 139.17L-57.20 139.17L-57.20 135.54Q-57.20 129.31-59.83 126.31Q-62.47 123.32-67.49 123.32L-67.49 123.32Q-71.12 123.32-73.54 124.16Q-75.96 125.01-77.74 126.07Q-79.53 127.13-81.04 127.97Q-82.55 128.82-84.37 128.82L-84.37 128.82Q-85.88 128.82-86.97 128.03Q-88.06 127.25-88.72 126.10L-88.72 126.10L-91.45 121.32Q-80.74 111.52-65.61 111.52L-65.61 111.52Q-60.17 111.52-55.90 113.30Q-51.64 115.09-48.67 118.26Q-45.71 121.44-44.17 125.86Q-42.62 130.27-42.62 135.54L-42.62 135.54ZM-71.66 165.42L-71.66 165.42Q-69.36 165.42-67.43 165.00Q-65.49 164.58-63.77 163.73Q-62.04 162.88-60.44 161.64Q-58.84 160.40-57.20 158.71L-57.20 158.71L-57.20 148.24Q-63.74 148.54-68.12 149.36Q-72.51 150.18-75.17 151.45Q-77.83 152.72-78.95 154.41Q-80.07 156.11-80.07 158.10L-80.07 158.10Q-80.07 162.04-77.74 163.73Q-75.41 165.42-71.66 165.42Z"/><path xml:space="preserve" font-family="Lato" font-size="121" font-style="normal" font-weight="bold" style="stroke: none; stroke-width: 0; stroke-dasharray: none; stroke-linecap: butt; stroke-dashoffset: 0; stroke-linejoin: miter; stroke-miterlimit: 4; is-custom-font: none; font-file-url: none; fill: rgb(216,24,24); fill-rule: nonzero; opacity: 1; white-space: pre;" d="M-22.84 112.67L-7.90 112.67L-7.90 174.74L-22.84 174.74L-22.84 112.67ZM-5.66 94.58L-5.66 94.58Q-5.66 96.51-6.44 98.21Q-7.23 99.90-8.53 101.17Q-9.83 102.44-11.59 103.20Q-13.34 103.96-15.34 103.96L-15.34 103.96Q-17.27 103.96-19.00 103.20Q-20.72 102.44-21.99 101.17Q-23.26 99.90-24.02 98.21Q-24.77 96.51-24.77 94.58L-24.77 94.58Q-24.77 92.58-24.02 90.83Q-23.26 89.07-21.99 87.80Q-20.72 86.53-19.00 85.78Q-17.27 85.02-15.34 85.02L-15.34 85.02Q-13.34 85.02-11.59 85.78Q-9.83 86.53-8.53 87.80Q-7.23 89.07-6.44 90.83Q-5.66 92.58-5.66 94.58Z"/><path xml:space="preserve" font-family="Lato" font-size="121" font-style="normal" font-weight="bold" style="stroke: none; stroke-width: 0; stroke-dasharray: none; stroke-linecap: butt; stroke-dashoffset: 0; stroke-linejoin: miter; stroke-miterlimit: 4; is-custom-font: none; font-file-url: none; fill: rgb(216,24,24); fill-rule: nonzero; opacity: 1; white-space: pre;" d="M65.91 174.74L56.78 174.74Q53.88 174.74 52.97 172.02L52.97 172.02L51.76 166.03Q49.82 168.21 47.70 169.96Q45.59 171.72 43.14 172.99Q40.69 174.26 37.87 174.95Q35.06 175.65 31.79 175.65L31.79 175.65Q26.71 175.65 22.48 173.53Q18.24 171.41 15.19 167.39Q12.13 163.37 10.47 157.44Q8.80 151.51 8.80 143.89L8.80 143.89Q8.80 136.99 10.68 131.06Q12.55 125.13 16.06 120.77Q19.57 116.42 24.47 113.97Q29.37 111.52 35.48 111.52L35.48 111.52Q40.69 111.52 44.38 113.18Q48.07 114.85 50.97 117.63L50.97 117.63L50.97 84.84L65.91 84.84L65.91 174.74ZM36.87 163.79L36.87 163.79Q41.53 163.79 44.80 161.85Q48.07 159.92 50.97 156.35L50.97 156.35L50.97 128.52Q48.43 125.43 45.44 124.16Q42.44 122.89 38.99 122.89L38.99 122.89Q35.60 122.89 32.85 124.16Q30.10 125.43 28.19 128.00Q26.29 130.58 25.26 134.54Q24.23 138.50 24.23 143.89L24.23 143.89Q24.23 149.33 25.11 153.11Q25.98 156.89 27.62 159.28Q29.25 161.67 31.61 162.73Q33.97 163.79 36.87 163.79Z"/><path xml:space="preserve" font-family="Lato" font-size="121" font-style="normal" font-weight="bold" style="stroke: none; stroke-width: 0; stroke-dasharray: none; stroke-linecap: butt; stroke-dashoffset: 0; stroke-linejoin: miter; stroke-miterlimit: 4; is-custom-font: none; font-file-url: none; fill: rgb(216,24,24); fill-rule: nonzero; opacity: 1; white-space: pre;" d="M87.15 112.67L102.09 112.67L102.09 174.74L87.15 174.74L87.15 112.67ZM104.33 94.58L104.33 94.58Q104.33 96.51 103.55 98.21Q102.76 99.90 101.46 101.17Q100.16 102.44 98.40 103.20Q96.65 103.96 94.65 103.96L94.65 103.96Q92.72 103.96 90.99 103.20Q89.27 102.44 88.00 101.17Q86.73 99.90 85.97 98.21Q85.21 96.51 85.21 94.58L85.21 94.58Q85.21 92.58 85.97 90.83Q86.73 89.07 88.00 87.80Q89.27 86.53 90.99 85.78Q92.72 85.02 94.65 85.02L94.65 85.02Q96.65 85.02 98.40 85.78Q100.16 86.53 101.46 87.80Q102.76 89.07 103.55 90.83Q104.33 92.58 104.33 94.58Z"/><path xml:space="preserve" font-family="Lato" font-size="121" font-style="normal" font-weight="bold" style="stroke: none; stroke-width: 0; stroke-dasharray: none; stroke-linecap: butt; stroke-dashoffset: 0; stroke-linejoin: miter; stroke-miterlimit: 4; is-custom-font: none; font-file-url: none; fill: rgb(216,24,24); fill-rule: nonzero; opacity: 1; white-space: pre;" d="M123.27 84.84L138.21 84.84L138.21 136.32L141.00 136.32Q142.51 136.32 143.35 135.90Q144.20 135.48 145.17 134.33L145.17 134.33L160.60 115.27Q161.63 114.06 162.78 113.36Q163.92 112.67 165.80 112.67L165.80 112.67L179.47 112.67L160.17 135.72Q159.15 136.99 158.06 138.05Q156.97 139.11 155.70 139.89L155.70 139.89Q156.97 140.80 157.94 142.01Q158.90 143.22 159.87 144.61L159.87 144.61L180.56 174.74L167.07 174.74Q165.32 174.74 164.11 174.14Q162.90 173.53 161.93 172.08L161.93 172.08L146.14 148.54Q145.23 147.15 144.32 146.73Q143.42 146.31 141.60 146.31L141.60 146.31L138.21 146.31L138.21 174.74L123.27 174.74L123.27 84.84Z"/></g>
<g transform="matrix(1 0 0 1 83.4024 26.0735)" style="" id="790894">
		
<path xml:space="preserve" font-family="Lato" font-size="20" font-style="normal" font-weight="bold" style="stroke: none; stroke-width: 0; stroke-dasharray: none; stroke-linecap: butt; stroke-dashoffset: 0; stroke-linejoin: miter; stroke-miterlimit: 4; is-custom-font: none; font-file-url: none; fill: rgb(255,255,255); fill-rule: nonzero; opacity: 1; white-space: pre;" d="M-18.68-18.35L-18.68-3.89L-21.39-3.89L-21.39-10.21L-28.17-10.21L-28.17-3.89L-30.88-3.89L-30.88-18.35L-28.17-18.35L-28.17-12.13L-21.39-12.13L-21.39-18.35L-18.68-18.35Z"/><path xml:space="preserve" font-family="Lato" font-size="20" font-style="normal" font-weight="bold" style="stroke: none; stroke-width: 0; stroke-dasharray: none; stroke-linecap: butt; stroke-dashoffset: 0; stroke-linejoin: miter; stroke-miterlimit: 4; is-custom-font: none; font-file-url: none; fill: rgb(255,255,255); fill-rule: nonzero; opacity: 1; white-space: pre;" d="M-7.00-10.37L-7.00-3.89L-8.11-3.89Q-8.46-3.89-8.66-3.99Q-8.86-4.10-8.96-4.42L-8.96-4.42L-9.18-5.15Q-9.57-4.80-9.95-4.53Q-10.32-4.27-10.72-4.09Q-11.12-3.91-11.57-3.82Q-12.02-3.73-12.57-3.73L-12.57-3.73Q-13.22-3.73-13.77-3.90Q-14.32-4.08-14.72-4.43Q-15.11-4.78-15.33-5.30Q-15.55-5.82-15.55-6.51L-15.55-6.51Q-15.55-7.09-15.25-7.65Q-14.94-8.22-14.23-8.67Q-13.52-9.13-12.34-9.43Q-11.16-9.73-9.41-9.77L-9.41-9.77L-9.41-10.37Q-9.41-11.40-9.85-11.89Q-10.28-12.39-11.11-12.39L-11.11-12.39Q-11.71-12.39-12.11-12.25Q-12.51-12.11-12.81-11.93Q-13.10-11.76-13.35-11.62Q-13.60-11.48-13.90-11.48L-13.90-11.48Q-14.15-11.48-14.33-11.61Q-14.51-11.74-14.62-11.93L-14.62-11.93L-15.07-12.72Q-13.30-14.34-10.80-14.34L-10.80-14.34Q-9.90-14.34-9.20-14.04Q-8.49-13.75-8.00-13.22Q-7.51-12.70-7.26-11.97Q-7.00-11.24-7.00-10.37L-7.00-10.37ZM-11.80-5.43L-11.80-5.43Q-11.42-5.43-11.10-5.50Q-10.78-5.57-10.50-5.71Q-10.21-5.85-9.95-6.05Q-9.68-6.26-9.41-6.54L-9.41-6.54L-9.41-8.27Q-10.49-8.22-11.22-8.08Q-11.94-7.95-12.38-7.74Q-12.82-7.53-13.01-7.25Q-13.19-6.97-13.19-6.64L-13.19-6.64Q-13.19-5.99-12.81-5.71Q-12.42-5.43-11.80-5.43Z"/><path xml:space="preserve" font-family="Lato" font-size="20" font-style="normal" font-weight="bold" style="stroke: none; stroke-width: 0; stroke-dasharray: none; stroke-linecap: butt; stroke-dashoffset: 0; stroke-linejoin: miter; stroke-miterlimit: 4; is-custom-font: none; font-file-url: none; fill: rgb(255,255,255); fill-rule: nonzero; opacity: 1; white-space: pre;" d="M-1.25-3.89L-3.71-3.89L-3.71-14.15L-2.27-14.15Q-1.89-14.15-1.73-14.01Q-1.58-13.87-1.54-13.53L-1.54-13.53L-1.39-12.29Q-0.83-13.24-0.09-13.79Q0.64-14.34 1.57-14.34L1.57-14.34Q2.33-14.34 2.83-13.99L2.83-13.99L2.50-12.14Q2.47-11.96 2.38-11.88Q2.28-11.81 2.11-11.81L2.11-11.81Q1.96-11.81 1.70-11.88Q1.43-11.95 1.00-11.95L1.00-11.95Q0.24-11.95-0.32-11.52Q-0.87-11.10-1.25-10.28L-1.25-10.28L-1.25-3.89Z"/><path xml:space="preserve" font-family="Lato" font-size="20" font-style="normal" font-weight="bold" style="stroke: none; stroke-width: 0; stroke-dasharray: none; stroke-linecap: butt; stroke-dashoffset: 0; stroke-linejoin: miter; stroke-miterlimit: 4; is-custom-font: none; font-file-url: none; fill: rgb(255,255,255); fill-rule: nonzero; opacity: 1; white-space: pre;" d="M6.97-3.89L5.35-3.89L5.35-18.75L7.82-18.75L7.82-12.89Q8.43-13.54 9.20-13.92Q9.96-14.31 11.00-14.31L11.00-14.31Q11.84-14.31 12.53-13.96Q13.23-13.62 13.73-12.96Q14.23-12.30 14.51-11.33Q14.79-10.36 14.79-9.10L14.79-9.10Q14.79-7.95 14.48-6.97Q14.16-5.99 13.59-5.27Q13.02-4.55 12.20-4.14Q11.39-3.74 10.38-3.74L10.38-3.74Q9.91-3.74 9.52-3.83Q9.13-3.93 8.80-4.10Q8.48-4.27 8.21-4.51Q7.94-4.76 7.69-5.06L7.69-5.06L7.58-4.37Q7.52-4.11 7.37-4.00Q7.22-3.89 6.97-3.89L6.97-3.89ZM10.14-12.39L10.14-12.39Q9.38-12.39 8.83-12.06Q8.29-11.74 7.82-11.15L7.82-11.15L7.82-6.55Q8.23-6.03 8.73-5.82Q9.23-5.62 9.80-5.62L9.80-5.62Q10.37-5.62 10.82-5.83Q11.27-6.04 11.58-6.47Q11.89-6.90 12.07-7.55Q12.23-8.21 12.23-9.10L12.23-9.10Q12.23-10.00 12.09-10.62Q11.95-11.25 11.68-11.64Q11.41-12.03 11.02-12.21Q10.64-12.39 10.14-12.39Z"/><path xml:space="preserve" font-family="Lato" font-size="20" font-style="normal" font-weight="bold" style="stroke: none; stroke-width: 0; stroke-dasharray: none; stroke-linecap: butt; stroke-dashoffset: 0; stroke-linejoin: miter; stroke-miterlimit: 4; is-custom-font: none; font-file-url: none; fill: rgb(255,255,255); fill-rule: nonzero; opacity: 1; white-space: pre;" d="M21.95-14.31L21.95-14.31Q23.11-14.31 24.04-13.94Q24.98-13.57 25.63-12.89Q26.30-12.21 26.66-11.23Q27.02-10.25 27.02-9.04L27.02-9.04Q27.02-7.82 26.66-6.84Q26.30-5.86 25.63-5.17Q24.98-4.48 24.04-4.11Q23.11-3.74 21.95-3.74L21.95-3.74Q20.80-3.74 19.86-4.11Q18.92-4.48 18.26-5.17Q17.59-5.86 17.23-6.84Q16.86-7.82 16.86-9.04L16.86-9.04Q16.86-10.25 17.23-11.23Q17.59-12.21 18.26-12.89Q18.92-13.57 19.86-13.94Q20.80-14.31 21.95-14.31ZM21.95-5.64L21.95-5.64Q23.23-5.64 23.85-6.50Q24.46-7.36 24.46-9.02L24.46-9.02Q24.46-10.68 23.85-11.55Q23.23-12.42 21.95-12.42L21.95-12.42Q20.66-12.42 20.04-11.54Q19.41-10.67 19.41-9.02L19.41-9.02Q19.41-7.37 20.04-6.50Q20.66-5.64 21.95-5.64Z"/><path xml:space="preserve" font-family="Lato" font-size="20" font-style="normal" font-weight="bold" style="stroke: none; stroke-width: 0; stroke-dasharray: none; stroke-linecap: butt; stroke-dashoffset: 0; stroke-linejoin: miter; stroke-miterlimit: 4; is-custom-font: none; font-file-url: none; fill: rgb(255,255,255); fill-rule: nonzero; opacity: 1; white-space: pre;" d=""/><path xml:space="preserve" font-family="Lato" font-size="20" font-style="normal" font-weight="bold" style="stroke: none; stroke-width: 0; stroke-dasharray: none; stroke-linecap: butt; stroke-dashoffset: 0; stroke-linejoin: miter; stroke-miterlimit: 4; is-custom-font: none; font-file-url: none; fill: rgb(255,255,255); fill-rule: nonzero; opacity: 1; white-space: pre;" d=""/><path xml:space="preserve" font-family="Lato" font-size="20" font-style="normal" font-weight="bold" style="stroke: none; stroke-width: 0; stroke-dasharray: none; stroke-linecap: butt; stroke-dashoffset: 0; stroke-linejoin: miter; stroke-miterlimit: 4; is-custom-font: none; font-file-url: none; fill: rgb(255,255,255); fill-rule: nonzero; opacity: 1; white-space: pre;" d=""/><path xml:space="preserve" font-family="Lato" font-size="20" font-style="normal" font-weight="bold" style="stroke: none; stroke-width: 0; stroke-dasharray: none; stroke-linecap: butt; stroke-dashoffset: 0; stroke-linejoin: miter; stroke-miterlimit: 4; is-custom-font: none; font-file-url: none; fill: rgb(255,255,255); fill-rule: nonzero; opacity: 1; white-space: pre;" d=""/><path xml:space="preserve" font-family="Lato" font-size="20" font-style="normal" font-weight="bold" style="stroke: none; stroke-width: 0; stroke-dasharray: none; stroke-linecap: butt; stroke-dashoffset: 0; stroke-linejoin: miter; stroke-miterlimit: 4; is-custom-font: none; font-file-url: none; fill: rgb(255,255,255); fill-rule: nonzero; opacity: 1; white-space: pre;" d=""/><path xml:space="preserve" font-family="Lato" font-size="20" font-style="normal" font-weight="bold" style="stroke: none; stroke-width: 0; stroke-dasharray: none; stroke-linecap: butt; stroke-dashoffset: 0; stroke-linejoin: miter; stroke-miterlimit: 4; is-custom-font: none; font-file-url: none; fill: rgb(255,255,255); fill-rule: nonzero; opacity: 1; white-space: pre;" d=""/><path xml:space="preserve" font-family="Lato" font-size="20" font-style="normal" font-weight="bold" style="stroke: none; stroke-width: 0; stroke-dasharray: none; stroke-linecap: butt; stroke-dashoffset: 0; stroke-linejoin: miter; stroke-miterlimit: 4; is-custom-font: none; font-file-url: none; fill: rgb(255,255,255); fill-rule: nonzero; opacity: 1; white-space: pre;" d=""/><path xml:space="preserve" font-family="Lato" font-size="20" font-style="normal" font-weight="bold" style="stroke: none; stroke-width: 0; stroke-dasharray: none; stroke-linecap: butt; stroke-dashoffset: 0; stroke-linejoin: miter; stroke-miterlimit: 4; is-custom-font: none; font-file-url: none; fill: rgb(255,255,255); fill-rule: nonzero; opacity: 1; white-space: pre;" d=""/><path xml:space="preserve" font-family="Lato" font-size="20" font-style="normal" font-weight="bold" style="stroke: none; stroke-width: 0; stroke-dasharray: none; stroke-linecap: butt; stroke-dashoffset: 0; stroke-linejoin: miter; stroke-miterlimit: 4; is-custom-font: none; font-file-url: none; fill: rgb(255,255,255); fill-rule: nonzero; opacity: 1; white-space: pre;" d=""/><path xml:space="preserve" font-family="Lato" font-size="20" font-style="normal" font-weight="bold" style="stroke: none; stroke-width: 0; stroke-dasharray: none; stroke-linecap: butt; stroke-dashoffset: 0; stroke-linejoin: miter; stroke-miterlimit: 4; is-custom-font: none; font-file-url: none; fill: rgb(255,255,255); fill-rule: nonzero; opacity: 1; white-space: pre;" d=""/><path xml:space="preserve" font-family="Lato" font-size="20" font-style="normal" font-weight="bold" style="stroke: none; stroke-width: 0; stroke-dasharray: none; stroke-linecap: butt; stroke-dashoffset: 0; stroke-linejoin: miter; stroke-miterlimit: 4; is-custom-font: none; font-file-url: none; fill: rgb(255,255,255); fill-rule: nonzero; opacity: 1; white-space: pre;" d=""/><path xml:space="preserve" font-family="Lato" font-size="20" font-style="normal" font-weight="bold" style="stroke: none; stroke-width: 0; stroke-dasharray: none; stroke-linecap: butt; stroke-dashoffset: 0; stroke-linejoin: miter; stroke-miterlimit: 4; is-custom-font: none; font-file-url: none; fill: rgb(255,255,255); fill-rule: nonzero; opacity: 1; white-space: pre;" d=""/><path xml:space="preserve" font-family="Lato" font-size="20" font-style="normal" font-weight="bold" style="stroke: none; stroke-width: 0; stroke-dasharray: none; stroke-linecap: butt; stroke-dashoffset: 0; stroke-linejoin: miter; stroke-miterlimit: 4; is-custom-font: none; font-file-url: none; fill: rgb(255,255,255); fill-rule: nonzero; opacity: 1; white-space: pre;" d="M1.33 16.45L-4.50 1.99L-2.33 1.99Q-1.98 1.99-1.76 2.16Q-1.54 2.33-1.44 2.60L-1.44 2.60L1.96 11.42Q2.13 11.85 2.29 12.37Q2.45 12.88 2.58 13.45L2.58 13.45Q2.82 12.30 3.16 11.42L3.16 11.42L6.54 2.60Q6.63 2.37 6.87 2.18Q7.10 1.99 7.44 1.99L7.44 1.99L9.61 1.99L3.77 16.45L1.33 16.45Z"/><path xml:space="preserve" font-family="Lato" font-size="20" font-style="normal" font-weight="bold" style="stroke: none; stroke-width: 0; stroke-dasharray: none; stroke-linecap: butt; stroke-dashoffset: 0; stroke-linejoin: miter; stroke-miterlimit: 4; is-custom-font: none; font-file-url: none; fill: rgb(255,255,255); fill-rule: nonzero; opacity: 1; white-space: pre;" d="M18.64 9.97L18.64 16.45L17.54 16.45Q17.19 16.45 16.98 16.35Q16.79 16.24 16.69 15.92L16.69 15.92L16.46 15.19Q16.07 15.54 15.70 15.81Q15.32 16.07 14.93 16.25Q14.53 16.43 14.07 16.52Q13.63 16.61 13.07 16.61L13.07 16.61Q12.43 16.61 11.88 16.44Q11.32 16.26 10.93 15.91Q10.54 15.56 10.31 15.04Q10.10 14.52 10.10 13.83L10.10 13.83Q10.10 13.25 10.40 12.69Q10.71 12.12 11.41 11.67Q12.13 11.21 13.30 10.91Q14.48 10.61 16.23 10.57L16.23 10.57L16.23 9.97Q16.23 8.94 15.80 8.45Q15.37 7.95 14.54 7.95L14.54 7.95Q13.94 7.95 13.54 8.09Q13.13 8.23 12.84 8.41Q12.54 8.58 12.29 8.72Q12.04 8.86 11.75 8.86L11.75 8.86Q11.50 8.86 11.32 8.73Q11.13 8.60 11.03 8.41L11.03 8.41L10.57 7.62Q12.35 6.00 14.85 6.00L14.85 6.00Q15.75 6.00 16.45 6.30Q17.16 6.59 17.64 7.12Q18.13 7.64 18.39 8.37Q18.64 9.10 18.64 9.97L18.64 9.97ZM13.85 14.91L13.85 14.91Q14.23 14.91 14.54 14.84Q14.87 14.77 15.15 14.63Q15.44 14.49 15.70 14.29Q15.96 14.08 16.23 13.80L16.23 13.80L16.23 12.07Q15.16 12.12 14.43 12.26Q13.71 12.39 13.27 12.60Q12.82 12.81 12.64 13.09Q12.46 13.37 12.46 13.70L12.46 13.70Q12.46 14.35 12.84 14.63Q13.22 14.91 13.85 14.91Z"/><path xml:space="preserve" font-family="Lato" font-size="20" font-style="normal" font-weight="bold" style="stroke: none; stroke-width: 0; stroke-dasharray: none; stroke-linecap: butt; stroke-dashoffset: 0; stroke-linejoin: miter; stroke-miterlimit: 4; is-custom-font: none; font-file-url: none; fill: rgb(255,255,255); fill-rule: nonzero; opacity: 1; white-space: pre;" d="M22.09 6.19L24.56 6.19L24.56 16.45L22.09 16.45L22.09 6.19ZM24.93 3.20L24.93 3.20Q24.93 3.52 24.80 3.80Q24.67 4.08 24.46 4.29Q24.24 4.50 23.95 4.63Q23.66 4.75 23.33 4.75L23.33 4.75Q23.01 4.75 22.73 4.63Q22.45 4.50 22.23 4.29Q22.02 4.08 21.90 3.80Q21.77 3.52 21.77 3.20L21.77 3.20Q21.77 2.87 21.90 2.58Q22.02 2.29 22.23 2.08Q22.45 1.87 22.73 1.75Q23.01 1.62 23.33 1.62L23.33 1.62Q23.66 1.62 23.95 1.75Q24.24 1.87 24.46 2.08Q24.67 2.29 24.80 2.58Q24.93 2.87 24.93 3.20Z"/><path xml:space="preserve" font-family="Lato" font-size="20" font-style="normal" font-weight="bold" style="stroke: none; stroke-width: 0; stroke-dasharray: none; stroke-linecap: butt; stroke-dashoffset: 0; stroke-linejoin: miter; stroke-miterlimit: 4; is-custom-font: none; font-file-url: none; fill: rgb(255,255,255); fill-rule: nonzero; opacity: 1; white-space: pre;" d="M36.95 16.45L35.44 16.45Q34.95 16.45 34.80 16.00L34.80 16.00L34.60 15.01Q34.28 15.37 33.94 15.66Q33.59 15.95 33.18 16.16Q32.77 16.37 32.31 16.49Q31.84 16.60 31.30 16.60L31.30 16.60Q30.46 16.60 29.77 16.25Q29.06 15.90 28.56 15.24Q28.05 14.57 27.78 13.59Q27.50 12.61 27.50 11.35L27.50 11.35Q27.50 10.21 27.82 9.23Q28.13 8.25 28.70 7.53Q29.29 6.81 30.09 6.41Q30.91 6.00 31.91 6.00L31.91 6.00Q32.77 6.00 33.38 6.28Q33.99 6.55 34.48 7.01L34.48 7.01L34.48 1.59L36.95 1.59L36.95 16.45ZM32.14 14.64L32.14 14.64Q32.91 14.64 33.45 14.32Q33.99 14.00 34.48 13.41L34.48 13.41L34.48 8.81Q34.05 8.30 33.56 8.09Q33.06 7.88 32.49 7.88L32.49 7.88Q31.93 7.88 31.48 8.09Q31.02 8.30 30.71 8.73Q30.39 9.15 30.23 9.81Q30.05 10.46 30.05 11.35L30.05 11.35Q30.05 12.25 30.20 12.88Q30.34 13.50 30.61 13.90Q30.88 14.29 31.27 14.47Q31.66 14.64 32.14 14.64Z"/><path xml:space="preserve" font-family="Lato" font-size="20" font-style="normal" font-weight="bold" style="stroke: none; stroke-width: 0; stroke-dasharray: none; stroke-linecap: butt; stroke-dashoffset: 0; stroke-linejoin: miter; stroke-miterlimit: 4; is-custom-font: none; font-file-url: none; fill: rgb(255,255,255); fill-rule: nonzero; opacity: 1; white-space: pre;" d="M40.63 6.19L43.11 6.19L43.11 16.45L40.63 16.45L40.63 6.19ZM43.48 3.20L43.48 3.20Q43.48 3.52 43.34 3.80Q43.22 4.08 43 4.29Q42.79 4.50 42.50 4.63Q42.20 4.75 41.88 4.75L41.88 4.75Q41.55 4.75 41.27 4.63Q40.98 4.50 40.77 4.29Q40.56 4.08 40.44 3.80Q40.31 3.52 40.31 3.20L40.31 3.20Q40.31 2.87 40.44 2.58Q40.56 2.29 40.77 2.08Q40.98 1.87 41.27 1.75Q41.55 1.62 41.88 1.62L41.88 1.62Q42.20 1.62 42.50 1.75Q42.79 1.87 43 2.08Q43.22 2.29 43.34 2.58Q43.48 2.87 43.48 3.20Z"/><path xml:space="preserve" font-family="Lato" font-size="20" font-style="normal" font-weight="bold" style="stroke: none; stroke-width: 0; stroke-dasharray: none; stroke-linecap: butt; stroke-dashoffset: 0; stroke-linejoin: miter; stroke-miterlimit: 4; is-custom-font: none; font-file-url: none; fill: rgb(255,255,255); fill-rule: nonzero; opacity: 1; white-space: pre;" d="M46.79 1.59L49.26 1.59L49.26 10.10L49.72 10.10Q49.97 10.10 50.11 10.03Q50.25 9.96 50.41 9.77L50.41 9.77L52.96 6.62Q53.13 6.42 53.32 6.31Q53.51 6.19 53.82 6.19L53.82 6.19L56.08 6.19L52.89 10.00Q52.72 10.21 52.54 10.39Q52.36 10.56 52.15 10.69L52.15 10.69Q52.36 10.84 52.52 11.04Q52.68 11.24 52.84 11.47L52.84 11.47L56.26 16.45L54.03 16.45Q53.73 16.45 53.54 16.35Q53.34 16.25 53.18 16.01L53.18 16.01L50.57 12.12Q50.42 11.89 50.27 11.82Q50.12 11.75 49.82 11.75L49.82 11.75L49.26 11.75L49.26 16.45L46.79 16.45L46.79 1.59Z"/></g>
</svg>